<svg version="1.1" id="_x32_" xmlns="http://www.w3.org/2000/svg" xmlns:xlink="http://www.w3.org/1999/xlink" x="0px" y="0px"
	 viewBox="0 0 543.4 482.2" style="enable-background:new 0 0 543.4 482.2;" xml:space="preserve">
<style type="text/css">
	.st0{fill:#3B2D51;}
	.st1{fill:#732C84;}
	.st2{fill:#AB56BF;}
	.st3{fill:#DDCBA6;}
	.st4{fill:#BF63D6;}
	.st5{fill:#EFE3CA;}
	.st6{opacity:0.45;}
	.st7{fill:#FFFFFF;}
	.st8{opacity:0.6;fill:#C94343;}
	.st9{fill:#964532;}
	.st10{fill:#7F3425;}
	.st11{fill:#FFB94A;}
	.st12{fill:#DB2828;}
	.st13{fill:#ED4848;}
	.st14{fill:#FFE9CA;}
	.st15{fill:#6D2D4A;}
	.st16{fill:#934769;}
	.st17{fill:#FF9566;}
	.st18{fill:#FFB882;}
	.st19{fill:#EADDBE;}
	.st20{fill:#F4E9D3;}
	.st21{fill:#D8C091;}
	.st22{fill:#7C3552;}
	.st23{fill:#DBC7A1;}
	.st24{fill:#E0D0B1;}
	.st25{fill:#FF9A3E;}
	.st26{fill:#ED8129;}
	.st27{fill:#F4E9D4;}
	.st28{opacity:0.39;}
	.st29{fill:#5E85BC;}
	.st30{fill:#4E75A5;}
	.st31{fill:#749DCE;}
	.st32{fill:#DB5B3E;}
	.st33{fill:#8B54B2;}
	.st34{fill:#634C84;}
	.st35{fill:#E2D5AF;}
	.st36{fill:#F7F0DA;}
	.st37{fill:#4C396B;}
	.st38{fill:#F24C5C;}
	.st39{fill:#D63444;}
	.st40{fill:#B72036;}
	.st41{fill:#6D3E4C;}
	.st42{fill:#592E3C;}
	.st43{fill:#FF9239;}
	.st44{fill:#FF6D2C;}
	.st45{fill:#7A4939;}
	.st46{fill:#603428;}
	.st47{fill:#DBCCAD;}
	.st48{fill:#D1BB93;}
	.st49{fill:#BA9E70;}
	.st50{fill:#F9F0E1;}
	.st51{fill:#F2E9CE;}
	.st52{fill:#503D70;}
	.st53{fill:#B7BF47;}
	.st54{fill:#999B32;}
	.st55{opacity:0.58;}
	.st56{fill:#FFF9F1;}
	.st57{fill:#A5A53A;}
	.st58{opacity:0.42;fill:#FFF9F1;}
	.st59{fill:#602540;}
	.st60{fill:#D8C5A0;}
	.st61{fill:#DBC8A2;}
	.st62{fill:#D3BB92;}
	.st63{fill:#F4E8CE;}
	.st64{fill:#CE5230;}
	.st65{fill:#CEB995;}
	.st66{fill:#EF7335;}
	.st67{fill:#4B6F9B;}
	.st68{fill:#F4E6C9;}
	.st69{fill:#FFC69F;}
</style>
<g>
	<polygon class="st0" points="425.6,292.2 215.7,292.2 173,482.2 382.9,482.2 	"/>
	<g>
		<polygon class="st1" points="230,92.8 198.7,92.8 190.3,231.6 225.8,231.6 		"/>
		<polygon class="st2" points="233.8,92.8 202,92.8 193.7,231.6 229.7,231.6 		"/>
		<polygon class="st1" points="238.6,96.2 206.8,96.2 193.6,231.1 227.3,231.3 		"/>
		<path class="st3" d="M231.2,94.6c-7.7,3-15.7,3.3-24.1,1.4l-9.4,133.7c10.3-1.9,20.1-1.9,27.2,0.3L231.2,94.6z"/>
		<polygon class="st1" points="311.7,90.2 228.5,90.2 217.7,231.6 302.6,231.6 		"/>
		<polygon class="st4" points="315.4,90.2 232.3,90.2 221.5,231.6 306.3,231.6 		"/>
		<path class="st5" d="M215.8,97.2c-2.8-0.1-5.7-0.5-8.7-1.1l-9.4,133.7c4.2-0.8,8.3-1.2,12.2-1.3L215.8,97.2z"/>
		<g class="st6">
			<path class="st7" d="M303,226.1h-77.3l9.8-130.5h75.8L303,226.1z M227.1,224.8h74.6L309.8,97h-73.1L227.1,224.8z"/>
		</g>
		<g class="st6">
			<path class="st7" d="M299.3,221.3h-69.1l8.7-120.9h67.7L299.3,221.3z M231.5,220.1h66.7l7.2-118.4h-65.3L231.5,220.1z"/>
		</g>
		<polygon class="st8" points="277.8,90.1 258.1,145.7 238.1,134.9 227,157.3 221.5,231.5 304.1,231.5 315.4,180.4 296.9,90.1 		"/>
	</g>
	<path class="st9" d="M300.6,27.1c-11.1-3.9-8-14.9-3.8-16.7c4.3-1.8,14.9,0.2,12.6,10.5C307.2,31.2,300.6,27.1,300.6,27.1z"/>
	<path class="st10" d="M301.8,20.6c-4.8-1.7-7-4.8-7.5-7.8c-2.4,4-2.3,11.2,6.3,14.3c0,0,6.5,4.1,8.8-6.2c0.3-1.3,0.4-2.5,0.3-3.5
		C307,23.8,301.8,20.6,301.8,20.6z"/>
	<path class="st11" d="M303.6,28c-8.7-2.3-6.3-8.6-3-9.7c3.3-1.1,11.7,0.1,9.9,6.1C308.8,30.4,303.6,28,303.6,28z"/>
	<path class="st9" d="M305.8,73.1c-15.3-10.9-15.2-37.2-8.4-47.2c6.8-10,25.4-10,33.3-0.9c7.9,9.1,8.7,23.7,1.9,31.5
		C325.7,64.2,305.8,73.1,305.8,73.1z"/>
	<path class="st10" d="M333.6,48.2c-0.3-16.4-2.6-20.6-9.6-24.7c0,0,8.2,6.9,4.3,16.5L333.6,48.2z"/>
	<path class="st10" d="M328.6,47.8c-4.7-17.4-8.1-21.5-16-24.5c0,0,9.9,5.6,8.7,16.7L328.6,47.8z"/>
	<path class="st10" d="M314,42.6c-8.4-7.1-12.1-16.1-6.8-22.4c0.4-0.5,0.9-0.9,1.4-1.4c-4.6,1-8.7,3.3-11.2,7
		c-6.8,10-7,36.3,8.4,47.2c0,0,19.9-8.9,26.8-16.7c2.3-2.6,3.7-6.1,4.3-9.8C331.3,52.1,322.1,49.3,314,42.6z"/>
	<path class="st12" d="M353.1,141.6c-1.1-25.1-26.8-53.5-29.5-53.7c-2.6-0.2-2.2,10.5,4.3,21s13.6,35.5,14.4,38.1
		C343.2,149.7,353.3,146,353.1,141.6z"/>
	<path class="st13" d="M324,85.5c-1.2-0.1-1.8,2.7-1.5,6.7c5.1,3.9,25.9,30.5,28.1,53.4c1.5-1.1,2.6-2.5,2.6-4
		C352,116.5,326.6,85.7,324,85.5z"/>
	<path class="st13" d="M265.1,143.1c1.1-25.1,26.8-56.6,29.5-56.8c2.6-0.2,1.7,17.9-4.8,28.5c-6.5,10.5-13.2,31.2-14,33.8
		C275.1,151.2,264.9,147.6,265.1,143.1z"/>
	<path class="st12" d="M287.9,109.8c-7.9,11.5-10.7,29-22.5,28.5c-0.7,0,5.1,9.9,3.8,9.7c2.9,1.5,6.3,2,6.7,0.5
		c0.8-2.6,9.9-24.5,16.3-35c3.6-5.9,0-15.4,0.5-21.5C290.9,97.8,291.4,104.7,287.9,109.8z"/>
	<path class="st14" d="M281,141.7c-4.9-4-14.6-5.4-17.2-3.8c-2.5,1.6-1.5,13.3,5.7,15.3C276.8,155.3,281,141.7,281,141.7z"/>
	<path class="st13" d="M321.6,108.9l-27.2-13.3c12.6,58.6-0.9,51.4,2.2,74.1c15.4,6.4,30.3,3.9,44.6-6.6
		C326.9,160,321.6,108.9,321.6,108.9z"/>
	<path class="st12" d="M306.4,169.5c-3.5-14.4,1.7-28,11.5-30.4c3.1-0.8,6.4-0.2,9.5,1.2c-4.1-14.8-5.9-31.5-5.9-31.5l-27.2-13.3
		c12.6,58.6-0.9,51.4,2.2,74.1c3.6,1.5,7.2,2.5,10.7,3C307,171.7,306.7,170.6,306.4,169.5z"/>
	<path class="st15" d="M316.9,168.9l-78.6-33.2c18.2,28.3,44.3,55.1,53.1,57.5c8.8,2.4,39.5,3.7,45.6,1.3
		c6.1-2.4,53.2-52.8,53.2-52.8S328.7,168.7,316.9,168.9z"/>
	<polygon class="st16" points="358.1,155.1 329.7,172.5 339.3,162.3 	"/>
	<path class="st13" d="M293.5,87c-5.1,9.1,0,42.3,2.4,44.5c2.3,2.2,36.4-1.6,38.1-3.1c1.7-1.5-6.7-40.5-9.5-42.5
		c-2.7-2-11.5-5.6-13.5-5.7C309.1,79.9,294.1,86,293.5,87z"/>
	<path class="st12" d="M298.2,128.6c-1.8-1.8-6-21.5-6.2-36.1c-2,12.8,1.9,38,3.8,39.8c2.3,2.2,36.6-2.5,38.3-3.9
		c0.2-0.2,0.3-1,0.2-2.3C327,127.9,300.3,130.7,298.2,128.6z"/>
	<path class="st17" d="M324,134.7c0,2.8-1.6,3.6-2,5.5c-0.3,1.9-1.3-0.8-0.9-2.4C321.6,136.3,324,134.7,324,134.7z"/>
	<path class="st18" d="M318.9,137c2.7,1.9,3.9,1.2,4.4,0.6c0.6-0.6,1.2-2.4,1.2-2.4l-3-0.9l0.1,1.9
		C321.6,136.2,317.2,135.8,318.9,137z"/>
	<path class="st18" d="M316.9,137.8c2.7,1.9,3.9,1.2,4.4,0.6c0.6-0.6,1.2-2.4,1.2-2.4l-3-0.9l0.1,1.9
		C319.6,137.1,315.2,136.6,316.9,137.8z"/>
	<path class="st18" d="M270.5,142.1c11.6-4.5,46.5-8.6,46.5-8.6l0.3,0.9c0,0-34,19.7-44.8,17.6C261.6,149.9,265.8,143.9,270.5,142.1
		z"/>
	<path class="st17" d="M276.5,146.1c-4.1-0.9-6.1-2.3-6.7-3.7c-4.3,2.1-7.5,7.6,2.8,9.6c10.8,2.1,44.8-17.6,44.8-17.6l-0.1-0.2
		C306.5,139,284.8,148,276.5,146.1z"/>
	<path class="st18" d="M323.8,134c-2.1-1.8-6.7-1.5-10.5,0.1l-1.1,2.2c3.1-0.7,7.8,0.7,9.2,1C322.9,137.7,325.9,135.8,323.8,134z"/>
	<path class="st18" d="M323.6,133.8c2.4,2,6.1,6.7,6,7.6c0,0.8-2.8-1.8-3.6-2.8c-0.7-1-3.5-3-3.5-3L323.6,133.8z"/>
	<polygon class="st19" points="343.9,94.7 317.2,153.6 290.2,155.1 288.6,156.5 372.7,155.3 401.4,94.7 	"/>
	<path class="st20" d="M343.9,94.7c23.9,10.3,33.8,30.3,28.8,60.6l28.8-60.6H343.9z"/>
	<polygon class="st21" points="319.2,156 346.8,94.7 343.9,94.7 317.2,153.6 290.2,155.1 288.6,156.5 	"/>
	<path class="st16" d="M393.4,124.3c-10.6,2.4-34.6,29.2-62.9,69.3l0.6,1.5c0,0,49-37.8,54.8-44.8
		C391.7,143.3,404.1,121.8,393.4,124.3z"/>
	<path class="st22" d="M387,145.8c-4.4,4.8-31.9,24.2-47.1,34.8c-3,4.1-6.2,8.5-9.3,13l0.6,1.5c0,0,49.3-37,55.1-44
		c3.1-3.8,7.8-12.4,10.1-18.6C393.5,137.6,389.6,143,387,145.8z"/>
	<path class="st22" d="M334.9,187.4l25.6-19.3c0,0,12.7-23.7,25.8-40.2C374.7,136.3,356.2,157.8,334.9,187.4z"/>
	<path class="st16" d="M239.4,133.4c-6.4,4.6,7.3,14,20,27c12.8,13.1,36.1,17,72.9,34.6l1.5-0.9
		C290.1,152.8,245.8,128.8,239.4,133.4z"/>
	<path class="st22" d="M318.6,180.4c-30.7-12.9-50.8-17-62.4-28.5c-6.8-6.7-13.9-12.5-18.1-17.1c-2.3,5,9.6,14.8,21.1,26.6
		c12.8,13.1,36.5,16,73.2,33.6l1.5-0.9C328.8,189.3,323.7,184.8,318.6,180.4z"/>
	<path class="st23" d="M332.3,196.8l4.4-7.1c0,0-6.5-6.3-14.2-10.7L332.3,196.8z"/>
	<path class="st19" d="M332.8,195.7l-5.6-1.9c0,0,4.5-7.9,16.5-13.5L332.8,195.7z"/>
	<path class="st14" d="M322,84.1c-3.8-2-9.4-5-10.9-5.2c-1.6-0.2-11.4,4.5-15.6,6.8c7.9,27.5,21.7,39,21.7,39S323.3,84.8,322,84.1z"
		/>
	<path class="st12" d="M322,84.1c-0.3-0.2-0.6-0.3-0.9-0.5c-0.7,9.5-4.9,37.5-4.9,37.5s-12.6-10.5-20.6-35.4c0,0,0,0-0.1,0
		c7.9,27.5,22,40.5,22,40.5S323.3,84.8,322,84.1z"/>
	<path class="st18" d="M301.8,83c-0.2-18.1,2.6-28.6,2.6-28.6l10.8,9.7l-0.6,16.3c0,0-2.6,5.5-5.9,5.9C305.3,86.8,301.8,83,301.8,83
		z"/>
	<g>
		<path class="st24" d="M409.1,195.3l-67.2,0c-11.9,0-15.3,34.6-3.4,34.6l67.2,0C399.6,225.2,400.5,200.7,409.1,195.3z"/>
		<path class="st25" d="M346.1,193.5l-93.7,0c-18.6-0.6-20.7,37.5-2.1,38l93.7,0C328.1,231.1,330.1,193.1,346.1,193.5z"/>
		<path class="st26" d="M343.2,231.5c-6.8-0.8-10.1-8.7-10.2-17.2h-95.6c0.2,8.7,4.4,17,13,17.2L343.2,231.5L343.2,231.5z"/>
		<path class="st11" d="M409.9,193.5l-74.6,0l-0.7,3.6l74.6,0c1,0,2-0.8,2.1-1.8v0C411.5,194.4,410.9,193.5,409.9,193.5z"/>
		<path class="st11" d="M408.2,228.4l-74.3,0l-0.7,3.1l74.3,0c1,0,2-0.7,2.2-1.6l0,0C409.9,229.1,409.2,228.4,408.2,228.4z"/>
		<path class="st27" d="M404.1,202.2l-58,0c-11.9,0-13.2,23.2-1.4,23.2l58.2,0C401.1,219.4,401.4,209.3,404.1,202.2z"/>
		<path class="st11" d="M346.1,193.5h-11.1c-8.7,7.2-9.8,30.8-1.4,38H344C328.1,231.1,330.1,193.1,346.1,193.5z"/>
		<g class="st28">
			<path class="st7" d="M327.4,230.2l-71.3,0c-5-0.1-9-2.6-11.4-7c-3.3-6.1-3-15,0.8-21.2c2.9-4.7,7.4-7.2,12.6-7.1h70.5l-1.6,1.2
				c-4.3,3.3-7,10-7.1,17.4c-0.1,6.8,2.1,12.6,5.9,15.6L327.4,230.2z M257.8,196.2c-4.6,0-8.5,2.3-11.1,6.5
				c-3.6,5.8-3.9,14.2-0.8,19.9c1.5,2.8,4.5,6.2,10.2,6.3l67.7,0c-3.3-3.5-5.1-9.1-5.1-15.5c0.1-7,2.4-13.4,6.2-17.2h-66.8
				C258,196.2,257.9,196.2,257.8,196.2z"/>
		</g>
	</g>
	<g>
		<path class="st24" d="M445.3,228.9l-104,0c-18.4,0-19.4,66.5-1,66.5l104,0C434.4,286.4,432.6,239.4,445.3,228.9z"/>
		<path class="st29" d="M347.5,225.6l-145,0c-28.9-1.1-27.3,72,1.6,73.1l145,0C324.3,297.7,322.8,224.7,347.5,225.6z"/>
		<path class="st30" d="M347.8,298.5c-10.6-1.5-16.7-16.8-17.9-33h-148c1.4,16.8,8.9,32.7,22.2,33.1l143.7,0L347.8,298.5z"/>
		<path class="st31" d="M446.2,225.6l-115.4,0l-0.6,6.9l115.4,0c1.5,0,2.9-1.6,3.1-3.5l0,0C448.9,227.1,447.8,225.6,446.2,225.6z"/>
		<path class="st31" d="M448.1,292.6l-115,0l-0.7,6l115,0c1.5,0,3-1.3,3.1-3l0,0C450.7,294,449.6,292.6,448.1,292.6z"/>
		<path class="st27" d="M438.5,242.2l-89.7,0c-18.4,0-17.6,44.7,0.8,44.7l90.1,0C435.9,275.2,435.1,255.8,438.5,242.2z"/>
		<path class="st31" d="M347.5,225.6h-17.2c-12.6,13.8-11.3,59.2,2.5,73.1h16.3C324.3,297.7,322.8,224.7,347.5,225.6z"/>
		<g class="st28">
			<path class="st7" d="M323.2,296.1l-110.4,0c-7.7-0.3-14.3-5-18.5-13.5c-5.9-11.7-6.5-28.9-1.3-40.8c3.9-9.1,10.5-13.9,18.6-13.6
				h109.2l-2.3,2.3c-6.2,6.4-9.6,19.2-8.8,33.4c0.7,13,4.9,24.2,11,30L323.2,296.1z M211.2,230.7c-7.1,0-12.9,4.4-16.3,12.4
				c-4.8,11.2-4.3,27.3,1.2,38.2c2.7,5.4,7.8,11.8,16.6,12.1l104.8,0c-5.5-6.6-9.1-17.5-9.8-29.7c-0.8-13.5,2.1-25.7,7.5-33.1H211.8
				C211.6,230.7,211.4,230.7,211.2,230.7z"/>
		</g>
	</g>
	<path class="st8" d="M313.4,107c7.1-4.2,10.7-12.7,10.2-21.8c-0.4-0.3-0.9-0.5-1.5-0.8c0-0.1,0-0.1,0-0.2c0-0.1-0.1-0.2-0.1-0.2
		c-2.3-1.2-5.1-2.7-7.4-3.8l0.5-14.7c-3.4-3.5-7.4-6-11.5-7.1c-0.8,4.5-1.8,12.8-1.8,24.1c-2.4,1.1-4.7,2.3-6.3,3.1c0,0,0,0-0.1,0
		c0,0,0,0.1,0,0.1c-0.4,0.2-0.8,0.4-1.1,0.6c-1.2,0.4-5.4,4.9-10.2,11.6C291.5,108.6,303.9,112.6,313.4,107z"/>
	<path class="st18" d="M302.7,49.3c-5.8,25,14.4,34.8,14.4,34.8s16-15.4,17.9-34.6c1-10.4-0.5-13.6-10.8-15.2
		C313.8,32.7,304.2,42.8,302.7,49.3z"/>
	<path class="st10" d="M303.9,63.3c5.3-15.5,6.5-28.5,0.2-27.8C297.7,36.2,295,58.4,303.9,63.3z"/>
	<path class="st18" d="M304.8,65.4c1.3-13.3,0.2-14.9-4-14.9C296.1,50.5,295.7,63.2,304.8,65.4z"/>
	<path class="st32" d="M303.5,62.4c0.8-7.9,0.1-8.9-2.4-8.9C298.2,53.4,298,61.1,303.5,62.4z"/>
	<path class="st18" d="M303.7,63.4c0-5.1-0.5-5.7-2.3-5.5C299.3,58,299.7,62.9,303.7,63.4z"/>
	<polygon class="st33" points="402.5,261.5 297.1,261.5 290.3,363.2 359.5,458.3 	"/>
	<polygon class="st34" points="405.2,265.3 299.7,265.3 293,367 362.2,462.1 	"/>
	<polygon class="st35" points="404.3,270.1 298.8,270.1 260.5,447.9 361.3,467 	"/>
	<path class="st36" d="M308.3,278.5c18.8-0.5,34.5-1.8,34.5-6.1c0-0.2,0-0.3-0.1-0.5h-40.5L308.3,278.5z"/>
	<path class="st0" d="M299.8,269.2c12.9,2,19.2,8.6,17.4,17C314.8,296.7,299.8,269.2,299.8,269.2z"/>
	<polygon class="st34" points="416.7,284.7 311.3,284.7 268.3,481.5 373.7,481.5 	"/>
	<polygon class="st37" points="437.2,284.7 331.8,284.7 288.8,481.5 394.2,481.5 	"/>
	<path class="st19" d="M316.7,298.4L279,471.1h92.5l37.7-172.7H316.7z M370,468.2h-87.4l35.6-167h87.4L370,468.2z"/>
	<polygon class="st8" points="317.3,261.6 320.2,265 319.4,269.9 331.8,284.7 347.9,284.7 351.7,261.6 	"/>
	<path class="st38" d="M489.6,236.4l-110.1,0c-3.4,0-6.2,2.7-6.4,6.1l-14,232.9c-0.2,3.7,2.7,6.8,6.4,6.8l118.3,0
		c3.5,0,6.4-2.8,6.5-6.3l5.8-232.9C496.2,239.3,493.3,236.4,489.6,236.4z"/>
	<path class="st39" d="M426.4,236.4l-43.2,0c-1.3,0-2.1,2.7-1.7,6.1l25.3,232.9c0.4,3.7,2,6.8,3.4,6.8l46.4,0c1.4,0,2.1-2.8,1.7-6.3
		L429.8,243C429.4,239.3,427.8,236.4,426.4,236.4z"/>
	<g>
		<path class="st19" d="M480.5,474.1h-94.8v-0.8l0.2-226.6h100c1.8,0,3.5,0.7,4.8,2c1.3,1.3,2,3,1.9,4.9l-5.3,214
			C487.2,471.2,484.2,474.1,480.5,474.1z M387.3,472.5h93.3c2.8,0,5.1-2.2,5.1-5l5.3-214c0-1.4-0.5-2.7-1.5-3.7
			c-1-1-2.3-1.6-3.7-1.6h-98.4L387.3,472.5z"/>
	</g>
	<polygon class="st39" points="381.7,236.4 346.5,236.4 342.3,482.2 381.5,482.2 	"/>
	<polygon class="st40" points="346.5,236.4 346.5,240.4 376.8,240.7 379,482.2 381.5,482.2 381.7,236.4 	"/>
	<path class="st41" d="M449.6,325.1c0,0,26.4,76.9,26.4,79.6c0,2.7-36.6,66.5-36.6,66.5l-0.9-0.3l18.5-64.5l-15.6-38.4L449.6,325.1z
		"/>
	<path class="st42" d="M446,343.8l-10.2,19.2l20.1,42.8l-17.3,65.2l0.2,0.1c6.9-15.8,25.2-63,25.2-65.2
		C463.9,403.9,453.8,366.7,446,343.8z"/>
	<path class="st41" d="M415,334.8c11.2,53.5,44.4,144.6,44.4,144.6h1l-13.2-116.3l6.6-6.2l-3.7-31.5
		C449.9,325.5,412.6,323.5,415,334.8z"/>
	<path class="st42" d="M419.9,348.4c15.4-14.3,20.9-13.9,25.3-12.2c4.4,1.7,8.3,0.4,8.3,0.4l-2.1-8.7l-31-1.6L419.9,348.4z"/>
	<g>
		<path class="st42" d="M420.8,328c-4,1.4-6.5,3.6-5.9,6.8c11.2,53.5,44.4,144.6,44.4,144.6h0.9C454.9,460.7,431.1,375.9,420.8,328z
			"/>
	</g>
	<polygon class="st42" points="447.5,364.8 438.4,361.3 447.6,361.1 455.7,354.5 	"/>
	<path class="st11" d="M438.1,249c17.4,14.2,23.8,41.2,23.8,41.2l33.4-1.5l1.7,7.9c0,0-27.9,16.2-42.6,11.8
		C439.6,304,438.1,249,438.1,249z"/>
	<path class="st17" d="M496.5,296.8c7.1,1.9,12,0.2,14-2.2c2-2.4,5.3-8.6,2-8.9c-3.3-0.3-17.5,5.4-17.5,5.4L496.5,296.8z"/>
	<path class="st43" d="M464.6,296.2c-9.8-2.9-5.9-27.1-26.5-47.2c0,0,1.5,55,16.2,59.4c14.8,4.4,42.6-11.8,42.6-11.8l-0.9-4.5
		C486.6,294.2,474.9,299.3,464.6,296.2z"/>
	<path class="st19" d="M498.9,297.9c0,0.3-4.7-10.1-4.7-10.1l-9.2,0.7l1.1,6.9l2.8,0.1l-3.4,1.9l3.6,5.7L498.9,297.9z"/>
	<path class="st11" d="M416.7,243.1c-14.5,18.4-9.9,43.4-6.5,55.2c3.4,11.9-2.1,35.8,7,46.4c0,0,13.2-14.4,22.4-13.2
		c9.2,1.2,11.5,5.9,13.9,3.8c2.4-2.1-0.7-30.8,0.9-38.8c1.5-7.9-0.8-29.3-11-41.7C433.1,242.6,416.7,243.1,416.7,243.1z"/>
	<path class="st44" d="M414.8,252.4c-1.6,0-3.2,0.8-4.6,2.3c-6.2,16.2-2.7,34.1,0.1,43.6c3.4,11.9-2.1,35.8,7,46.4
		c0,0,6.4-7,13.4-10.8c0.7-6.7,1.1-13.9,1.1-21.5C431.7,279.3,424.1,252.4,414.8,252.4z"/>
	<path class="st45" d="M426.8,228.9c-9.7-15.3-5.6-21.5-5.6-21.5s-5.3-8,0.1-15.6c0,0,0.4-11.3,14-13.8c0,0,8.9-9.6,16-4.1
		c0,0,8.3-6.6,12.2,6.3c3.9,12.8-1,12.7-1,12.7s7.7,16.6-4.8,20.7C445.2,217.7,426.8,228.9,426.8,228.9z"/>
	<path class="st46" d="M456.8,213.8c0,0-9.6-0.5-12.5-9.3c0,0-8.8-7-2.9-19.4c0,0-1.5-7.8,1.9-12.4c-4.5,1.4-8.1,5.3-8.1,5.3
		c-13.5,2.5-14,13.8-14,13.8c-5.4,7.5-0.1,15.6-0.1,15.6s-4.2,6.2,5.6,21.5c0,0,17.6-10.7,30.1-15
		C456.8,213.9,456.8,213.8,456.8,213.8z"/>
	<path class="st19" d="M436,247l-19.3-3.9c15.1,7.2,29.6,20.5,29.6,20.5S441.3,250.3,436,247z"/>
	<polygon class="st18" points="416.7,243.1 430.7,208.6 442.9,225 437.7,249.6 	"/>
	<polygon class="st47" points="521,231.3 490.6,288.1 440.9,292.6 441.1,293.5 508.9,293.5 543.4,236.8 	"/>
	<polygon class="st48" points="490.6,288.1 440.9,292.6 441.1,293.5 508.9,293.5 493.3,291.3 	"/>
	<polygon class="st49" points="441.1,293.5 508.9,293.5 493.3,291.3 	"/>
	<polygon class="st5" points="527.5,232.9 493.3,291.3 508.9,293.5 543.4,236.8 	"/>
	<polygon class="st50" points="527.5,232.9 508.9,293.5 543.4,236.8 	"/>
	<path class="st44" d="M410.8,301.1c2.1,12.4-2,33.4,6.2,43.4c6.2-25.6,15.9-34.4,37-32.6c-0.2-5.8-0.2-11.2,0.2-14.4
		C442.6,296,423,294.6,410.8,301.1z"/>
	<path class="st11" d="M428.9,290.6c-1.5-23.1-8.7-48.5-12.5-47.2c-4.6,1.5-12.2,11.2-13.5,25c-1.2,12.7,7.4,40.9,13.8,46.1
		c6.4,5.2,42.7-20.6,52.4-24.8l1.7-10.5C457.4,278.8,440.2,284.3,428.9,290.6z"/>
	<path class="st43" d="M431.6,289.1c11.3-4.7,26.3-8.3,38.1-7.4l-1.8,8.5c0.4-0.2,0.8-0.4,1.2-0.6l1.7-10.5
		C458.4,278.8,442.8,283.5,431.6,289.1z"/>
	<path class="st43" d="M420.4,305.9c-6.4-5.2-13.8-36.4-12.5-49.1c0.2-2.3,0.6-4.4,1.1-6.4c-2.9,4.4-5.4,10.6-6.2,18.1
		c-1.2,12.7,6.2,43.9,12.5,49.1c6.4,5.2,44-23.6,53.7-27.9l1.1-6.5C457,290.3,426.2,310.5,420.4,305.9z"/>
	<path class="st51" d="M472.7,482.2h-13.5c0,0-1.9-3.3,0.9-4.7C463.7,475.7,472.7,482.2,472.7,482.2z"/>
	<path class="st51" d="M447.3,482.2h-7.6l-3.4-10.5c0,0,3.2-5.7,4.8-2.7c1,1.9,0.4,7.5,0.4,9.9C444.1,480.8,447.3,482.2,447.3,482.2
		z"/>
	<path class="st34" d="M302,265.4c-2,6.1,12.8,17.7,16.5,19.3l-11.1,2.6l-11.2-16.4l0.8-9.5L302,265.4z"/>
	<path class="st52" d="M313.7,287.7c-11.5-6.6-15.4-17.7-16.6-26.2l-42.9,196.8c1.8,9.9,6.1,18.1,14.5,23.4L313.7,287.7z"/>
	<polygon class="st19" points="368.4,334.6 351.9,334.6 350,465.6 368.3,465.6 	"/>
	<polygon class="st19" points="352.6,253.5 369,253.5 370.3,247.5 352,247.5 	"/>
	<polygon class="st19" points="352.6,266.8 369,266.8 370.3,260.7 352,260.7 	"/>
	<path class="st17" d="M483.9,280.8c0.3,3.2-0.5,5.2-1.2,5.6c-0.7,0.4-3.1-0.8-3.5-1.8C478.8,283.5,483.6,278,483.9,280.8z"/>
	<path class="st18" d="M483.1,278.9c-0.2,6-0.8,6.5-1.7,7.1c-0.9,0.5-3.7-0.2-4-1.1c-0.3-0.9,0.2-3.3,0.9-3.1
		c0.7,0.2,1.6,0.3,1.6,0.3L483.1,278.9z"/>
	<path class="st18" d="M480.7,277.2c-1.2-2.4-10.9-2.2-16,2.6l3.2,8.6c4.4-1.9,8.3-5.3,11-5C481.7,283.6,481.9,279.6,480.7,277.2z"
		/>
	<path class="st18" d="M479.6,280.2c-0.2,6-0.8,6.5-1.7,7.1s-3.7-0.2-4-1.1c-0.3-0.9,0.2-3.3,0.9-3.1s1.6,0.3,1.6,0.3L479.6,280.2z"
		/>
	<path class="st18" d="M478.7,276c3.2,0.7,5.5,2.3,6.6,3.8c1.1,1.5,2.4,5.3,2.5,6.2c0,0.9-1.8,2-2.2,0.8c-0.4-1.1-1.6-4.6-2-4.7
		c-0.3-0.1-3.6-1.9-3.8-1.9C479.6,280.2,478.7,276,478.7,276z"/>
	<path class="st19" d="M470.8,289.2c0,0.4-4.7-11.9-4.7-11.9l-9.2,0.8l1.1,8l2.8,0.1l-3.4,2.3l3.6,6.7L470.8,289.2z"/>
	<polygon class="st19" points="415.3,243.6 418,239.1 439.1,247 437.8,251 	"/>
	<path class="st8" d="M438.8,249.7c-0.1-0.2-0.3-0.3-0.4-0.5l0.7-2.2l-0.8-0.3l2.3-11.1c-3.5-6.6-8.4-13.1-13.8-17.4l-8.6,21.1
		l-0.3-0.1l-2.7,4.4l0.3,0.1c-1.9,0.9-4.2,3.1-6.4,6.3c12.1-0.5,29,11.6,35.1,7.9c0.5-0.3,0.8-0.7,1.1-1.2
		C443.5,254.1,441.3,251.8,438.8,249.7z"/>
	<path class="st18" d="M433,198.5c-7.4,18.1-7.3,35-7.2,36.3c0.1,1.3,11.9,10.1,15.9,10.9c0,0,14.4-18.2,17.4-33.4
		c3-15.2-0.9-19-5.4-19.9S435.9,191.5,433,198.5z"/>
	<path class="st46" d="M430.9,221.9c10-24,12.8-35.5,4.3-31.2c-8.5,4.4-7.9,27.7-7.9,27.7L430.9,221.9z"/>
	<path class="st18" d="M430.8,213.9c0.2-5.7-6.1-10.7-7.3-4.6c-1.2,6.1,2.7,15.2,4.2,13.3C429.3,220.7,430.7,215.8,430.8,213.9z"/>
	<path class="st32" d="M429.5,214.2c0.2-3.6-3.8-6.8-4.6-2.9c-0.7,3.8,1.7,9.5,2.6,8.4C428.5,218.5,429.4,215.4,429.5,214.2z"/>
	<path class="st18" d="M428.8,216.6c0.1-2.3-2.5-4.4-3-1.9c-0.5,2.5,1.1,6.3,1.7,5.5C428.2,219.4,428.8,217.4,428.8,216.6z"/>
	<path class="st17" d="M512.2,291.4c2.7-2.9,5-8.8,4.4-10.9c-0.7-2.1-2.5-1.3-3-0.4s-1.1,7.4-1.5,8.9
		C511.7,290.6,512.2,291.4,512.2,291.4z"/>
	<path class="st17" d="M510.2,294.2c2.3-2.2,3.6-6.6,2.6-8.1c-1-1.6-2.7-1-3.1-0.3c-0.4,0.7,0.1,5.5,0,6.7
		C509.6,293.6,510.2,294.2,510.2,294.2z"/>
	<polygon class="st53" points="119.4,300.6 220.1,300.6 234.3,482.2 120.5,482.2 	"/>
	<polygon class="st54" points="129.5,401.5 167.4,300.7 183.1,300.7 177,318.8 182.6,317.7 187.6,407.1 205,407.1 214.3,442.1 
		221.7,442.1 228.4,464.4 231.1,482 119.3,482 	"/>
	<g class="st55">
		<path class="st56" d="M123.1,307l89.9-0.8l10,169.3l-98.8,0.5L123.1,307z M211.7,307.6l-87.2,0.8l1.1,166.1l95.9-0.5L211.7,307.6z
			"/>
	</g>
	<polygon class="st57" points="219.5,300.6 245,300.6 256.1,482.2 229.4,482.2 	"/>
	<polygon class="st58" points="230,328.5 242.4,328.5 250.1,456.6 237,456.6 	"/>
	<polygon class="st54" points="221.6,300.6 231.4,482.2 227.6,482.2 217.8,300.6 	"/>
	<path class="st22" d="M117.6,383.4C86.4,393.3,9.3,406.2,9.3,406.2l0.4,1.3h120L117.6,383.4z"/>
	<polygon class="st59" points="124.9,395.6 129.7,407.5 9.7,407.5 9.7,407.5 	"/>
	<path class="st19" d="M122.8,365.8c24.5-14.4,26.6-17.8,30.9-26.8c4.3-9,8-27.5-1.3-28.1c-9.3-0.6-26.1,30.6-33.4,30
		C111.8,340.3,109.3,373.8,122.8,365.8z"/>
	<path class="st60" d="M117,341.2c1.5,2.9,7.3,5.9,10.6,2.7c13.7-13.6,15.5-26.1,22.6-29.9c0.8-0.4,6.6,0.6,7-0.4
		c2.8,5.8-0.1,18.1-3.3,24.8c-4.3,9-6.4,12.4-30.9,26.8C110.7,372.4,111.4,346.2,117,341.2z"/>
	<path class="st19" d="M143.8,319.9c5.4-9.8,12.5-13.6,12.5-13.6s19.3-6,25.7,10.2c6.4,16.3-15.4,66.6-19.1,76
		c-3.7,9.5-7.9,12.5-29,11l-17.8-19.3C136.1,368.2,140.3,326.4,143.8,319.9z"/>
	<g>
		<path class="st60" d="M133.7,355.8c-1.5,10.9,10.9,22,15.5,21.7c7.3-0.6,17.1-27.9,25-50.9c2.2-6.3,3.2-11.9,3.4-16.8
			c1.8,1.6,3.3,3.8,4.4,6.7c6.4,16.3-15.4,66.6-19.1,76c-3.7,9.5-7.9,12.5-29,11l-17.8-19.3C124.3,377.7,129.8,366.8,133.7,355.8z"
			/>
	</g>
	<polygon class="st61" points="135.9,335.5 102.2,332.2 68.6,337.4 103.8,339.4 136.1,336.7 	"/>
	<polygon class="st62" points="97.2,332.9 102.2,332.2 135.9,335.5 136.1,336.7 131,337.1 	"/>
	<polygon class="st19" points="93.7,279.2 102.2,332.2 68.6,337.4 57.6,290.2 	"/>
	<polygon class="st63" points="93.7,279.2 68.6,337.4 57.6,290.2 	"/>
	<polygon class="st61" points="90.9,280 93.7,279.2 102.2,332.2 98.9,332.7 	"/>
	<path class="st19" d="M156.7,367.1c21.1-19.1,22.4-21.1,24.9-30.8c2.4-9.7,2.2-28.6-7-27.3c-9.2,1.3-19.1,33.8-26.4,34.7
		C140.9,344.7,145.1,377.7,156.7,367.1z"/>
	<path class="st60" d="M148.2,343.8c4.6-0.6,10.3-13.9,16.1-23.8c3.4-5.8-8,23.3-15.3,24.2c-5.7,0.7-4.4,21.2,2.1,24.8
		C144,366.7,142.2,344.5,148.2,343.8z"/>
	<path class="st60" d="M156.6,352.3c21.1-19.1,22.4-22.9,24.8-32.5c0.2-0.9,0.4-2,0.6-3c1.4,6,0.8,14.2-0.5,19.6
		c-2.4,9.7-3.8,13.4-24.8,32.5c-10,9-14.5-15.1-11-22.8C147.6,352.5,151.3,357.1,156.6,352.3z"/>
	<path class="st17" d="M118.5,342.2c-12.9-5-39.5-4.1-39.5-4.1l3.3,4.6c0,0,30.8,25.9,38.3,23.1
		C128.3,362.9,123.7,344.3,118.5,342.2z"/>
	<path class="st18" d="M157,342.5c-7-11.9-22.6-22.7-22.6-22.7l-7.1,4.9c0,0,16.3,43.4,23.6,45C158.2,371.3,159.7,347.2,157,342.5z"
		/>
	<path class="st17" d="M151,355c3.5,0.8,5.7-4.4,6.7-10.5c1.7,7.4-0.3,26.6-6.8,25.2c-7.3-1.6-23.6-45-23.6-45S146.1,354,151,355z"
		/>
	<g>
		<path class="st64" d="M124.2,246.3c0,0-0.1,0.7-0.2,1.7C123.9,247,124.2,246.3,124.2,246.3z"/>
		<path class="st45" d="M123.9,248.1c0,0.9,0.1,2,0.7,3.2c1.3,2.6,8.4,3.6,4.9-7.9c-3.5-11.5,6.4-13,6.4-13s-6.3,5.4,1,8.4
			c7.3,3,3.8-6.4,11.2-7.6c7.4-1.2,9.7,10.1,9.7,10.1s3-6.9,13.4-3c10.4,4,3.6,12.2,3.6,12.2s9.7,1.6,10.4,14.5
			c0.7,12.9-6.4,8.1-6.4,8.1c1.2,7.9-5.6,11.5-5.6,11.5s-1.8,3.3-3,11.7l-29.5-27C122.2,274.4,123.2,254.2,123.9,248.1z"/>
		<path class="st46" d="M145,265.2c13.1-6.2,25.3-13.8,22.8-26.8c-0.1-0.4-0.2-0.8-0.3-1.2c1.1,0.2,2.4,0.5,3.8,1
			c10.4,4,3.6,12.2,3.6,12.2s9.7,1.6,10.4,14.5c0.7,12.9-6.4,8.1-6.4,8.1c1.2,7.9-5.6,11.5-5.6,11.5s-1.8,3.3-3,11.7l-29.5-27
			c-9.8,2.7-14.1-1.5-16-7.1C128.8,267.8,132.4,271.1,145,265.2z"/>
	</g>
	<path class="st18" d="M167.2,280.3l6.6,26.9c-6.7,1-12.7,4.6-18.1,10.5l-3.1-28.8L167.2,280.3z"/>
	<path class="st22" d="M100,340.3l7.9-3.5c17.1,4.6,44.8,60.7,44.8,60.7s-7,9.9-14.9,9.9c-11,0-20,0-20,0l-10.3-48.1l-21.3,46.4
		l-1.8-0.7C84.4,404.9,95.9,350,100,340.3z"/>
	<path class="st59" d="M108.5,343.4c0,0,10.7,6.7,19.6,12.5c12.9,17.9,24.7,41.6,24.7,41.6s-7,9.9-14.9,9.9c-11,0-20,0-20,0
		l-10.3-48.1l-21.3,46.4l-0.9-0.3L108.5,343.4z"/>
	<g>
		<path class="st65" d="M203.3,408.3H117c-15.3,0-19.7,32.5-4.4,32.5h86.3C191.1,436.5,192.2,413.5,203.3,408.3z"/>
		<path class="st11" d="M118.3,406.7H31c-17.3-0.5-19.3,35.2-1.9,35.7l87.3,0C101.5,442,103.4,406.3,118.3,406.7z"/>
		<g>
			<path class="st11" d="M204.1,406.7H33.2l-0.7,3.4h170.9c1.1,0,2.1-0.8,2.3-1.7l0,0C205.8,407.5,205.1,406.7,204.1,406.7z"/>
			<path class="st11" d="M202.4,439.5H31.8l-0.8,2.9h170.6c1.1,0,2.1-0.7,2.3-1.5l0,0C204.1,440.1,203.4,439.5,202.4,439.5z"/>
		</g>
		<g>
			<path class="st66" d="M204.8,406.7l-91.2,0l-0.4,3.4l91.2,0c0.6,0,1.1-0.8,1.2-1.7l0,0C205.8,407.5,205.4,406.7,204.8,406.7z"/>
			<path class="st66" d="M203.9,439.5l-91,0l-0.4,2.9l91,0c0.6,0,1.1-0.7,1.2-1.5l0,0C204.8,440.1,204.5,439.5,203.9,439.5z"/>
		</g>
		<path class="st66" d="M122.2,409.4H34.9c-17.3-0.4-19.3,30-1.9,30.4l87.3,0C99.2,438.4,101.1,408,122.2,409.4z"/>
		<path class="st3" d="M119.9,410.5l-77.1,0.4c-15.5-0.4-17.2,28-1.7,28.4l78.1,0C105.9,438.9,106.6,410.1,119.9,410.5z"/>
		<path class="st19" d="M109,414.3l-61.4,0c-12.2-0.3-13.5,21.2-1.3,21.5l61.4,0C97.2,435.6,98.6,414.1,109,414.3z"/>
	</g>
	<g>
		<path class="st29" d="M133.2,441.8l-123.2,0c-7.6,0-7.7,40.4-0.1,40.4l123.2,0C123.3,482.2,123.4,441.8,133.2,441.8z"/>
		<path class="st3" d="M221.8,446.6l-88.4,0c-15.6,0-15.7,30.9-0.1,30.9l88.4,0C213.2,473.3,211.1,451.5,221.8,446.6z"/>
		<path class="st19" d="M154.2,471.3c-12.1,0-12-18.6,0.1-18.6h62c-2.4,5.5-2,13.1,0.4,18.6H154.2z"/>
		<path class="st67" d="M220.9,441.8l-101.9,0l0,7.1l101.9,0c1.3,0,2.4-1.6,2.4-3.6l0,0C223.3,443.4,222.3,441.8,220.9,441.8z"/>
		<path class="st67" d="M220.9,475.1l-101.9,0l0,7.1l101.9,0c1.3,0,2.4-1.6,2.4-3.6l0,0C223.2,476.7,222.2,475.1,220.9,475.1z"/>
		<path class="st67" d="M133.2,482.2h-17c-5.9-7.6-5.8-32.7,0.1-40.4h17C123.4,441.8,123.3,482.2,133.2,482.2z"/>
		<g>
			<path class="st3" d="M15.1,462.2c0-7.7,1.3-16.6,4.8-16.6h87.9v1.5c-2.7,0-4.7,6.5-4.7,15.1c0,8.5,2,14.9,4.6,14.9v1.5H19.8
				C16.4,478.5,15.1,469.7,15.1,462.2z M101.8,462.1c0-6.2,1-12.4,3.3-15.1H19.9c-1.9,0-3.5,6.8-3.5,15.1c0,9.3,1.7,14.8,3.4,14.8
				H105C102.8,474.3,101.8,468.2,101.8,462.1z"/>
		</g>
	</g>
	<path class="st68" d="M70.1,406.7h16.8c0,0,2.3-2.7-0.6-4.2C83.3,401,70.1,406.7,70.1,406.7z"/>
	<path class="st68" d="M0,394l7.9,14.8c0,0,3.5,0.8,3.4-2.5C11.2,403,0,394,0,394z"/>
	<path class="st8" d="M155.6,329.8c-6.4-1.4-8.6-8.1-8.7-16.6c1.1-0.8,2.2-1.5,3.2-1.9c1.7-1.8,3.3-3.1,4.4-3.9l-2-18.6l14.7-8.6
		l6.6,26.9c0,0-0.1,0-0.1,0c1.1,0.5,2.2,1.2,3.2,2c2,0.5,3.4,2.3,4.4,4.6C171.1,315.8,164.8,331.8,155.6,329.8z"/>
	<path class="st18" d="M164.7,258.9c4.9,19.7,1.8,38.6,1.8,38.6s-13.4,8.1-21.6,8.2c0,0-7.6-31.5-4.6-44
		C143.3,249.1,163.7,254.9,164.7,258.9z"/>
	<path class="st46" d="M162.9,286.4c-1.5-17.6-2.6-29.1,2.8-26.4c5.4,2.6,3.5,22.5,3.5,22.5L162.9,286.4z"/>
	<polygon class="st19" points="134.3,278.2 136.8,287.2 156.7,285.2 157.1,277.1 171.7,275 175.1,279.3 178.1,276.7 173.5,273.4 	
		"/>
	<polygon class="st18" points="141.6,278.5 135.6,279.3 137.5,286 141.9,285.4 	"/>
	<polygon class="st18" points="141.6,278.3 135.6,279.1 137.5,285.9 141.9,285.3 	"/>
	<polygon class="st69" points="141.7,285.3 140.2,285.5 135.8,279.1 137.6,278.9 	"/>
	<path class="st18" d="M166.4,276.8c1.7-4.7,8.3-3.7,7.1-0.2c-1.2,3.5-6,9.9-7.3,8.9C165,284.5,166,278.1,166.4,276.8z"/>
	<path class="st18" d="M142.6,279.5c-0.2-0.1-3.1,12-3.3,13.1c-0.2,1.1,6.8-1.1,6.8-1.1S143.2,279.8,142.6,279.5z"/>
	<path class="st32" d="M167.7,278c1-2.7,4.7-2.1,4.1-0.1c-0.7,2-3.5,5.7-4.2,5.1C166.9,282.4,167.5,278.8,167.7,278z"/>
	<path class="st18" d="M167.5,280.4c0.6-1.7,3-1.3,2.6-0.1s-2.2,3.6-2.7,3.2C167,283.2,167.3,280.9,167.5,280.4z"/>
	<polygon class="st18" points="143.7,278.2 145.7,285.5 155.2,284.3 155.7,276.9 	"/>
	<polygon class="st69" points="144.9,278.1 148.9,277.6 155,284.3 151,284.8 	"/>
	<path class="st17" d="M142.6,279.5c0.1,0.1,0.3,0.5,0.5,1.2c-0.9,3.5-2.5,10.2-2.6,11c-0.1,0.8,3.5-0.1,5.5-0.7
		c0.1,0.3,0.1,0.5,0.1,0.5s-7,2.1-6.8,1.1C139.5,291.5,142.4,279.3,142.6,279.5z"/>
	<path class="st61" d="M77.3,312.8c1.3-0.2,2.1-2.3,1.7-4.6c-0.2-1.2-0.6-2.2-1.2-2.9c0.9,0.5,1.7,1.9,2,3.6
		c0.4,2.3-0.4,4.4-1.7,4.6c-0.7,0.1-1.3-0.3-1.9-0.9C76.6,312.8,76.9,312.9,77.3,312.8z"/>
	<path class="st62" d="M76.1,302.8c1.3-0.2,2.6,1,3.5,2.9c-0.8-1.2-1.8-1.9-2.8-1.8c-1.8,0.3-2.8,3.2-2.3,6.5c0.2,1,0.4,1.8,0.8,2.6
		c-0.6-1-1.2-2.2-1.4-3.7C73.3,306,74.3,303.1,76.1,302.8z"/>
	<path class="st17" d="M112.5,321.4c-0.4,2.9,0.5,4.8,1.4,5.1c0.8,0.3,3.6-0.8,4.1-1.7C118.5,323.9,112.9,318.8,112.5,321.4z"/>
	<path class="st18" d="M113.5,319.7c0.2,5.5,0.9,6,2,6.5c1.1,0.5,4.3-0.2,4.7-1.1c0.4-0.9-0.2-3-1.1-2.8c-0.9,0.2-1.9,0.2-1.9,0.2
		L113.5,319.7z"/>
	<path class="st18" d="M116.3,318.1c1.5-2.2,12.7-2.1,18.7,2.2l-6.1,6.1c-2-3.2-7.2-3-10.5-2.7C115.1,324,114.8,320.3,116.3,318.1z"
		/>
	<path class="st18" d="M115.8,320.8c0.2,5.5,0.9,6,2,6.5c1.1,0.5,4.3-0.2,4.7-1.1c0.4-0.9-0.2-3-1.1-2.8c-0.9,0.2-1.9,0.2-1.9,0.2
		L115.8,320.8z"/>
	<path class="st18" d="M118.6,317c-3.8,0.7-6.5,2.1-7.7,3.5c-1.3,1.4-2.8,4.9-2.9,5.7s2.1,1.8,2.6,0.7c0.5-1.1,1.9-4.2,2.3-4.4
		c0.4-0.1,4.2-1.8,4.4-1.7C117.5,320.9,118.6,317,118.6,317z"/>
	<path class="st17" d="M86,345.4c-8.4-3.6-13-2-15-7.9l12.8,0.5L86,345.4z"/>
	<path class="st17" d="M76.3,340.5c-2.8-1.6-3.5-3.9-3.5-5.4c0-1.5-2.3-1.9-2.3-0.4c-0.1,1.4,0.5,3.2,1.1,4.1
		C72.2,339.7,76.3,340.5,76.3,340.5z"/>
	<path class="st17" d="M79.5,340.8c-2.8-1.6-3.5-3.9-3.5-5.4c0-1.5-2.3-1.9-2.3-0.4c-0.1,1.4,0.5,3.2,1.1,4.1
		C75.4,340,79.5,340.8,79.5,340.8z"/>
	<path class="st17" d="M82.9,341.1c-2.8-1.6-3.5-3.9-3.5-5.4c0-1.5-2.3-1.9-2.3-0.4c-0.1,1.4,0.5,3.2,1.1,4.1
		C78.8,340.3,82.9,341.1,82.9,341.1z"/>
	<polygon class="st25" points="116,81.9 90.6,81.9 97.5,106.7 109,106.7 	"/>
	<polygon class="st25" points="106.2,104.2 100.3,104.2 101.2,108.7 105.4,108.7 	"/>
	<path class="st25" d="M103.3,29.8c-14.1,0-24.2,13.8-24.2,30.9c0,17.1,10.1,30.9,24.2,30.9c14.1,0,24.2-13.8,24.2-30.9
		C127.5,43.6,117.4,29.8,103.3,29.8z M97.8,87.5C85.6,85,79.5,71.1,82.3,56.3c2.9-14.8,14.2-24.8,26.4-22.4
		c12.2,2.4,18.4,16.4,15.5,31.1C121.4,79.9,110,89.9,97.8,87.5z"/>
	<g>
		<path class="st25" d="M108.7,89.9l-2.6-0.1l2.8-24.3c-3.4,1-7,0.6-9.4,0l3.6,23.2l-2.8,0.6l-5.6-30l2.8,1.2c0.1,0,7.5,3,12.6,0
			l2.8-1.7L108.7,89.9z"/>
	</g>
	<path class="st25" d="M63.8,93.6C67,91,74,83.9,72.6,82.7c-1.4-1.3-10.2,4.3-13.4,6.8c-3.2,2.6-4.9,5.4-3.5,6.7
		C57.2,97.4,60.6,96.1,63.8,93.6z"/>
	<path class="st25" d="M152.8,83.5c-3.6-2-13.5-6.2-14.9-4.9c-1.4,1.3,6.6,7,10.3,9c3.6,2,7.5,2.8,8.9,1.6
		C158.5,87.9,156.4,85.5,152.8,83.5z"/>
	<path class="st25" d="M171.3,54c-3.4-0.4-12.1-0.6-12.4,0.7c-0.3,1.3,8,3.2,11.4,3.6c3.4,0.4,6.4-0.1,6.7-1.4
		C177.4,55.6,174.8,54.4,171.3,54z"/>
	<path class="st25" d="M91.3,5.7c0.5,3,2.6,10.5,4.1,10.4c1.5-0.1,1.3-7.7,0.8-10.7c-0.5-3-1.8-5.4-3.3-5.3
		C91.4,0.1,90.8,2.6,91.3,5.7z"/>
	<path class="st25" d="M40.9,63.1c3.9-0.4,13.1-2.6,12.6-4.3c-0.5-1.7-10.3-1.8-14.2-1.3c-3.9,0.4-6.7,1.8-6.2,3.6
		C33.6,62.8,37,63.6,40.9,63.1z"/>
	<path class="st25" d="M145.7,7.2c-3,2.1-9.7,8.2-8.2,9.4c1.4,1.3,9.8-3.2,12.8-5.4c3-2.1,4.6-4.6,3.2-5.9
		C152.1,4.1,148.7,5.1,145.7,7.2z"/>
	<path class="st25" d="M39.9,18.4c3.8,2.9,13.7,9.3,14.9,8c1.4-1.4-8.5-10.8-13-14.4c-4.6-3.6-8.4-4.9-8.6-2.5
		C33,11.8,36.1,15.4,39.9,18.4z"/>
	<polygon class="st26" points="40.9,239.8 47.5,264.6 53.2,239 	"/>
	<rect x="4.8" y="204.9" class="st25" width="70.1" height="41.5"/>
</g>
</svg>
